
<svg width="150" height="150" viewBox="0 0 150 150" fill="none" xmlns="http://www.w3.org/2000/svg">
<path d="M19.1414 124.214C8.00206 130.663 0 125.289 0 115.729C0 105.552 0 75.0161 0 75.0161C0 75.0161 0 44.4804 0 34.3034C0 24.7436 7.9971 19.369 19.1414 25.8185C36.4908 35.8611 88.534 65.9987 88.534 65.9987C95.4539 70.0048 95.4539 80.0225 88.534 84.0286C88.534 84.0335 36.4908 114.171 19.1414 124.214Z" fill="#00C1FF"/>
<path d="M76.4284 124.214C65.289 130.663 57.287 125.289 57.287 115.729C57.287 105.552 57.287 75.0161 57.287 75.0161C57.287 75.0161 57.287 44.4803 57.287 34.3034C57.287 24.7435 65.2841 19.3689 76.4284 25.8185C93.3956 35.6421 144.297 65.1178 144.297 65.1178C151.897 69.517 151.897 80.5151 144.297 84.9143C144.292 84.9143 93.3956 114.39 76.4284 124.214Z" fill="#FEBA36"/>
<mask id="mask0_19_62" style="mask-type:alpha" maskUnits="userSpaceOnUse" x="57" y="23" width="93" height="105">
<path d="M76.4314 124.214C65.292 130.663 57.29 125.289 57.29 115.729C57.29 105.552 57.29 75.0161 57.29 75.0161C57.29 75.0161 57.29 44.4803 57.29 34.3034C57.29 24.7435 65.2871 19.3689 76.4314 25.8185C93.3985 35.6421 144.3 65.1178 144.3 65.1178C151.9 69.517 151.9 80.5151 144.3 84.9143C144.295 84.9143 93.3985 114.39 76.4314 124.214Z" fill="#6FE4FF"/>
</mask>
<g mask="url(#mask0_19_62)">
<g filter="url(#filter0_f_19_62)">
<path d="M19.141 124.214C8.00169 130.663 -0.000366211 125.289 -0.000366211 115.729C-0.000366211 105.552 -0.000366211 75.0161 -0.000366211 75.0161C-0.000366211 75.0161 -0.000366211 44.4803 -0.000366211 34.3034C-0.000366211 24.7435 7.99673 19.3689 19.141 25.8185C36.4904 35.861 88.5336 65.9987 88.5336 65.9987C95.4535 70.0047 95.4535 80.0224 88.5336 84.0285C88.5336 84.0335 36.4904 114.171 19.141 124.214Z" fill="#FE7917"/>
</g>
</g>
<defs>
<filter id="filter0_f_19_62" x="-17.2381" y="5.76231" width="128.199" height="138.508" filterUnits="userSpaceOnUse" color-interpolation-filters="sRGB">
<feFlood flood-opacity="0" result="BackgroundImageFix"/>
<feBlend mode="normal" in="SourceGraphic" in2="BackgroundImageFix" result="shape"/>
<feGaussianBlur stdDeviation="8.61885" result="effect1_foregroundBlur_19_62"/>
</filter>
</defs>
</svg>
